<mxfile host="Electron" modified="2024-02-14T21:51:28.149Z" agent="Mozilla/5.0 (Windows NT 10.0; Win64; x64) AppleWebKit/537.36 (KHTML, like Gecko) draw.io/23.0.2 Chrome/120.0.6099.109 Electron/28.1.0 Safari/537.36" etag="BjqEPLoC8rjQ4aDBcGzb" version="23.0.2" type="device">
  <diagram name="Pagina-1" id="0nR2MPWtobeliMF9VYm1">
    <mxGraphModel dx="1637" dy="473" grid="1" gridSize="10" guides="1" tooltips="1" connect="1" arrows="1" fold="1" page="1" pageScale="1" pageWidth="827" pageHeight="1169" math="0" shadow="0">
      <root>
        <mxCell id="0" />
        <mxCell id="1" parent="0" />
        <mxCell id="q-CX9jV84ZE6ob1jogBu-200" value="" style="group" parent="1" vertex="1" connectable="0">
          <mxGeometry x="120" y="40" width="620" height="120" as="geometry" />
        </mxCell>
        <mxCell id="q-CX9jV84ZE6ob1jogBu-37" value="Flatness" style="rounded=0;whiteSpace=wrap;html=1;" parent="q-CX9jV84ZE6ob1jogBu-200" vertex="1">
          <mxGeometry x="40" y="40" width="80" height="40" as="geometry" />
        </mxCell>
        <mxCell id="q-CX9jV84ZE6ob1jogBu-39" value="" style="ellipse;whiteSpace=wrap;html=1;aspect=fixed;" parent="q-CX9jV84ZE6ob1jogBu-200" vertex="1">
          <mxGeometry x="150" y="50" width="20" height="20" as="geometry" />
        </mxCell>
        <mxCell id="q-CX9jV84ZE6ob1jogBu-35" style="edgeStyle=orthogonalEdgeStyle;rounded=0;orthogonalLoop=1;jettySize=auto;html=1;exitX=1;exitY=0.5;exitDx=0;exitDy=0;entryX=0;entryY=0.5;entryDx=0;entryDy=0;" parent="q-CX9jV84ZE6ob1jogBu-200" source="q-CX9jV84ZE6ob1jogBu-37" target="q-CX9jV84ZE6ob1jogBu-39" edge="1">
          <mxGeometry relative="1" as="geometry" />
        </mxCell>
        <mxCell id="q-CX9jV84ZE6ob1jogBu-42" style="edgeStyle=orthogonalEdgeStyle;rounded=0;orthogonalLoop=1;jettySize=auto;html=1;exitX=1;exitY=0.5;exitDx=0;exitDy=0;" parent="q-CX9jV84ZE6ob1jogBu-200" source="q-CX9jV84ZE6ob1jogBu-43" edge="1">
          <mxGeometry relative="1" as="geometry">
            <mxPoint x="620" y="60" as="targetPoint" />
          </mxGeometry>
        </mxCell>
        <mxCell id="q-CX9jV84ZE6ob1jogBu-43" value="System Dynamics" style="rounded=0;whiteSpace=wrap;html=1;" parent="q-CX9jV84ZE6ob1jogBu-200" vertex="1">
          <mxGeometry x="500" y="40" width="80" height="40" as="geometry" />
        </mxCell>
        <mxCell id="q-CX9jV84ZE6ob1jogBu-44" value="" style="endArrow=classic;html=1;rounded=0;entryX=0;entryY=0.5;entryDx=0;entryDy=0;" parent="q-CX9jV84ZE6ob1jogBu-200" target="q-CX9jV84ZE6ob1jogBu-37" edge="1">
          <mxGeometry width="50" height="50" relative="1" as="geometry">
            <mxPoint y="60" as="sourcePoint" />
            <mxPoint x="300" y="190" as="targetPoint" />
          </mxGeometry>
        </mxCell>
        <mxCell id="q-CX9jV84ZE6ob1jogBu-45" value="" style="endArrow=classic;html=1;rounded=0;entryX=0.5;entryY=1;entryDx=0;entryDy=0;strokeColor=#009900;" parent="q-CX9jV84ZE6ob1jogBu-200" target="q-CX9jV84ZE6ob1jogBu-39" edge="1">
          <mxGeometry width="50" height="50" relative="1" as="geometry">
            <mxPoint x="600" y="60" as="sourcePoint" />
            <mxPoint x="170" y="120" as="targetPoint" />
            <Array as="points">
              <mxPoint x="600" y="120" />
              <mxPoint x="160" y="120" />
            </Array>
          </mxGeometry>
        </mxCell>
        <mxCell id="q-CX9jV84ZE6ob1jogBu-46" value="R" style="rounded=0;whiteSpace=wrap;html=1;fillColor=#fff2cc;strokeColor=#d6b656;" parent="q-CX9jV84ZE6ob1jogBu-200" vertex="1">
          <mxGeometry x="200" y="40" width="40" height="40" as="geometry" />
        </mxCell>
        <mxCell id="q-CX9jV84ZE6ob1jogBu-38" style="edgeStyle=orthogonalEdgeStyle;rounded=0;orthogonalLoop=1;jettySize=auto;html=1;exitX=1;exitY=0.5;exitDx=0;exitDy=0;entryX=0;entryY=0.5;entryDx=0;entryDy=0;" parent="q-CX9jV84ZE6ob1jogBu-200" source="q-CX9jV84ZE6ob1jogBu-39" target="q-CX9jV84ZE6ob1jogBu-46" edge="1">
          <mxGeometry relative="1" as="geometry">
            <mxPoint x="220" y="60" as="targetPoint" />
          </mxGeometry>
        </mxCell>
        <mxCell id="q-CX9jV84ZE6ob1jogBu-47" value="K" style="rounded=0;whiteSpace=wrap;html=1;fillColor=#fff2cc;strokeColor=#d6b656;" parent="q-CX9jV84ZE6ob1jogBu-200" vertex="1">
          <mxGeometry x="280" y="40" width="40" height="40" as="geometry" />
        </mxCell>
        <mxCell id="q-CX9jV84ZE6ob1jogBu-51" style="edgeStyle=orthogonalEdgeStyle;rounded=0;orthogonalLoop=1;jettySize=auto;html=1;exitX=1;exitY=0.5;exitDx=0;exitDy=0;entryX=0;entryY=0.5;entryDx=0;entryDy=0;" parent="q-CX9jV84ZE6ob1jogBu-200" source="q-CX9jV84ZE6ob1jogBu-46" target="q-CX9jV84ZE6ob1jogBu-47" edge="1">
          <mxGeometry relative="1" as="geometry" />
        </mxCell>
        <mxCell id="q-CX9jV84ZE6ob1jogBu-52" style="edgeStyle=orthogonalEdgeStyle;rounded=0;orthogonalLoop=1;jettySize=auto;html=1;exitX=1;exitY=0.5;exitDx=0;exitDy=0;entryX=0;entryY=0.5;entryDx=0;entryDy=0;" parent="q-CX9jV84ZE6ob1jogBu-200" source="q-CX9jV84ZE6ob1jogBu-48" target="q-CX9jV84ZE6ob1jogBu-43" edge="1">
          <mxGeometry relative="1" as="geometry" />
        </mxCell>
        <mxCell id="q-CX9jV84ZE6ob1jogBu-48" value="Input Transformation" style="rounded=0;whiteSpace=wrap;html=1;fillColor=#fff2cc;strokeColor=#d6b656;" parent="q-CX9jV84ZE6ob1jogBu-200" vertex="1">
          <mxGeometry x="360" y="40" width="100" height="40" as="geometry" />
        </mxCell>
        <mxCell id="q-CX9jV84ZE6ob1jogBu-36" style="edgeStyle=orthogonalEdgeStyle;rounded=0;orthogonalLoop=1;jettySize=auto;html=1;exitX=0.5;exitY=0;exitDx=0;exitDy=0;entryX=0.5;entryY=0;entryDx=0;entryDy=0;strokeColor=#0000FF;" parent="q-CX9jV84ZE6ob1jogBu-200" source="q-CX9jV84ZE6ob1jogBu-37" target="q-CX9jV84ZE6ob1jogBu-48" edge="1">
          <mxGeometry relative="1" as="geometry">
            <Array as="points">
              <mxPoint x="80" />
              <mxPoint x="410" />
            </Array>
            <mxPoint x="260" y="40" as="targetPoint" />
          </mxGeometry>
        </mxCell>
        <mxCell id="q-CX9jV84ZE6ob1jogBu-50" style="edgeStyle=orthogonalEdgeStyle;rounded=0;orthogonalLoop=1;jettySize=auto;html=1;exitX=1;exitY=0.5;exitDx=0;exitDy=0;entryX=0;entryY=0.5;entryDx=0;entryDy=0;" parent="q-CX9jV84ZE6ob1jogBu-200" source="q-CX9jV84ZE6ob1jogBu-47" target="q-CX9jV84ZE6ob1jogBu-48" edge="1">
          <mxGeometry relative="1" as="geometry" />
        </mxCell>
        <mxCell id="PEVOTj-VkGjCecRarAXN-2" value="" style="endArrow=classic;html=1;rounded=0;entryX=0.5;entryY=1;entryDx=0;entryDy=0;strokeColor=#009900;" edge="1" parent="q-CX9jV84ZE6ob1jogBu-200">
          <mxGeometry width="50" height="50" relative="1" as="geometry">
            <mxPoint x="409.88" y="120" as="sourcePoint" />
            <mxPoint x="409.88" y="80" as="targetPoint" />
          </mxGeometry>
        </mxCell>
        <mxCell id="q-CX9jV84ZE6ob1jogBu-201" value="" style="group" parent="1" vertex="1" connectable="0">
          <mxGeometry x="120" y="200" width="620" height="120" as="geometry" />
        </mxCell>
        <mxCell id="q-CX9jV84ZE6ob1jogBu-55" value="Flatness" style="rounded=0;whiteSpace=wrap;html=1;" parent="q-CX9jV84ZE6ob1jogBu-201" vertex="1">
          <mxGeometry x="40" y="40" width="80" height="40" as="geometry" />
        </mxCell>
        <mxCell id="q-CX9jV84ZE6ob1jogBu-57" value="" style="ellipse;whiteSpace=wrap;html=1;aspect=fixed;" parent="q-CX9jV84ZE6ob1jogBu-201" vertex="1">
          <mxGeometry x="150" y="50" width="20" height="20" as="geometry" />
        </mxCell>
        <mxCell id="q-CX9jV84ZE6ob1jogBu-53" style="edgeStyle=orthogonalEdgeStyle;rounded=0;orthogonalLoop=1;jettySize=auto;html=1;exitX=1;exitY=0.5;exitDx=0;exitDy=0;entryX=0;entryY=0.5;entryDx=0;entryDy=0;" parent="q-CX9jV84ZE6ob1jogBu-201" source="q-CX9jV84ZE6ob1jogBu-55" target="q-CX9jV84ZE6ob1jogBu-57" edge="1">
          <mxGeometry relative="1" as="geometry" />
        </mxCell>
        <mxCell id="q-CX9jV84ZE6ob1jogBu-58" style="edgeStyle=orthogonalEdgeStyle;rounded=0;orthogonalLoop=1;jettySize=auto;html=1;exitX=1;exitY=0.5;exitDx=0;exitDy=0;" parent="q-CX9jV84ZE6ob1jogBu-201" source="q-CX9jV84ZE6ob1jogBu-59" edge="1">
          <mxGeometry relative="1" as="geometry">
            <mxPoint x="620" y="60" as="targetPoint" />
          </mxGeometry>
        </mxCell>
        <mxCell id="q-CX9jV84ZE6ob1jogBu-59" value="System Dynamics" style="rounded=0;whiteSpace=wrap;html=1;" parent="q-CX9jV84ZE6ob1jogBu-201" vertex="1">
          <mxGeometry x="500" y="40" width="80" height="40" as="geometry" />
        </mxCell>
        <mxCell id="q-CX9jV84ZE6ob1jogBu-60" value="" style="endArrow=classic;html=1;rounded=0;entryX=0;entryY=0.5;entryDx=0;entryDy=0;" parent="q-CX9jV84ZE6ob1jogBu-201" target="q-CX9jV84ZE6ob1jogBu-55" edge="1">
          <mxGeometry width="50" height="50" relative="1" as="geometry">
            <mxPoint y="60" as="sourcePoint" />
            <mxPoint x="300" y="190" as="targetPoint" />
          </mxGeometry>
        </mxCell>
        <mxCell id="q-CX9jV84ZE6ob1jogBu-61" value="" style="endArrow=classic;html=1;rounded=0;entryX=0.5;entryY=1;entryDx=0;entryDy=0;strokeColor=#009900;" parent="q-CX9jV84ZE6ob1jogBu-201" target="q-CX9jV84ZE6ob1jogBu-57" edge="1">
          <mxGeometry width="50" height="50" relative="1" as="geometry">
            <mxPoint x="600" y="60" as="sourcePoint" />
            <mxPoint x="170" y="120" as="targetPoint" />
            <Array as="points">
              <mxPoint x="600" y="120" />
              <mxPoint x="160" y="120" />
            </Array>
          </mxGeometry>
        </mxCell>
        <mxCell id="q-CX9jV84ZE6ob1jogBu-63" value="R" style="rounded=0;whiteSpace=wrap;html=1;fillColor=#fff2cc;strokeColor=#d6b656;" parent="q-CX9jV84ZE6ob1jogBu-201" vertex="1">
          <mxGeometry x="200" y="40" width="40" height="40" as="geometry" />
        </mxCell>
        <mxCell id="q-CX9jV84ZE6ob1jogBu-56" style="edgeStyle=orthogonalEdgeStyle;rounded=0;orthogonalLoop=1;jettySize=auto;html=1;exitX=1;exitY=0.5;exitDx=0;exitDy=0;entryX=0;entryY=0.5;entryDx=0;entryDy=0;" parent="q-CX9jV84ZE6ob1jogBu-201" source="q-CX9jV84ZE6ob1jogBu-57" target="q-CX9jV84ZE6ob1jogBu-63" edge="1">
          <mxGeometry relative="1" as="geometry">
            <mxPoint x="220" y="60" as="targetPoint" />
          </mxGeometry>
        </mxCell>
        <mxCell id="q-CX9jV84ZE6ob1jogBu-65" value="NL K" style="rounded=0;whiteSpace=wrap;html=1;fillColor=#fff2cc;strokeColor=#d6b656;" parent="q-CX9jV84ZE6ob1jogBu-201" vertex="1">
          <mxGeometry x="280" y="40" width="40" height="40" as="geometry" />
        </mxCell>
        <mxCell id="q-CX9jV84ZE6ob1jogBu-62" style="edgeStyle=orthogonalEdgeStyle;rounded=0;orthogonalLoop=1;jettySize=auto;html=1;exitX=1;exitY=0.5;exitDx=0;exitDy=0;entryX=0;entryY=0.5;entryDx=0;entryDy=0;" parent="q-CX9jV84ZE6ob1jogBu-201" source="q-CX9jV84ZE6ob1jogBu-63" target="q-CX9jV84ZE6ob1jogBu-65" edge="1">
          <mxGeometry relative="1" as="geometry" />
        </mxCell>
        <mxCell id="q-CX9jV84ZE6ob1jogBu-66" style="edgeStyle=orthogonalEdgeStyle;rounded=0;orthogonalLoop=1;jettySize=auto;html=1;exitX=1;exitY=0.5;exitDx=0;exitDy=0;entryX=0;entryY=0.5;entryDx=0;entryDy=0;" parent="q-CX9jV84ZE6ob1jogBu-201" source="q-CX9jV84ZE6ob1jogBu-67" target="q-CX9jV84ZE6ob1jogBu-59" edge="1">
          <mxGeometry relative="1" as="geometry" />
        </mxCell>
        <mxCell id="q-CX9jV84ZE6ob1jogBu-67" value="Input Transformation" style="rounded=0;whiteSpace=wrap;html=1;fillColor=#fff2cc;strokeColor=#d6b656;" parent="q-CX9jV84ZE6ob1jogBu-201" vertex="1">
          <mxGeometry x="360" y="40" width="100" height="40" as="geometry" />
        </mxCell>
        <mxCell id="q-CX9jV84ZE6ob1jogBu-54" style="edgeStyle=orthogonalEdgeStyle;rounded=0;orthogonalLoop=1;jettySize=auto;html=1;exitX=0.5;exitY=0;exitDx=0;exitDy=0;entryX=0.5;entryY=0;entryDx=0;entryDy=0;strokeColor=#0000FF;" parent="q-CX9jV84ZE6ob1jogBu-201" source="q-CX9jV84ZE6ob1jogBu-55" target="q-CX9jV84ZE6ob1jogBu-67" edge="1">
          <mxGeometry relative="1" as="geometry">
            <Array as="points">
              <mxPoint x="80" />
              <mxPoint x="410" />
            </Array>
            <mxPoint x="260" y="40" as="targetPoint" />
          </mxGeometry>
        </mxCell>
        <mxCell id="q-CX9jV84ZE6ob1jogBu-64" style="edgeStyle=orthogonalEdgeStyle;rounded=0;orthogonalLoop=1;jettySize=auto;html=1;exitX=1;exitY=0.5;exitDx=0;exitDy=0;entryX=0;entryY=0.5;entryDx=0;entryDy=0;" parent="q-CX9jV84ZE6ob1jogBu-201" source="q-CX9jV84ZE6ob1jogBu-65" target="q-CX9jV84ZE6ob1jogBu-67" edge="1">
          <mxGeometry relative="1" as="geometry" />
        </mxCell>
        <mxCell id="q-CX9jV84ZE6ob1jogBu-68" value="" style="endArrow=classic;html=1;rounded=0;entryX=0.5;entryY=0;entryDx=0;entryDy=0;strokeColor=#0000FF;" parent="q-CX9jV84ZE6ob1jogBu-201" target="q-CX9jV84ZE6ob1jogBu-65" edge="1">
          <mxGeometry width="50" height="50" relative="1" as="geometry">
            <mxPoint x="300" as="sourcePoint" />
            <mxPoint x="210" y="10" as="targetPoint" />
          </mxGeometry>
        </mxCell>
        <mxCell id="PEVOTj-VkGjCecRarAXN-3" value="" style="endArrow=classic;html=1;rounded=0;entryX=0.5;entryY=1;entryDx=0;entryDy=0;strokeColor=#009900;" edge="1" parent="q-CX9jV84ZE6ob1jogBu-201">
          <mxGeometry width="50" height="50" relative="1" as="geometry">
            <mxPoint x="409.83" y="120" as="sourcePoint" />
            <mxPoint x="409.83" y="80" as="targetPoint" />
          </mxGeometry>
        </mxCell>
        <mxCell id="PEVOTj-VkGjCecRarAXN-4" value="" style="endArrow=classic;html=1;rounded=0;entryX=0.5;entryY=1;entryDx=0;entryDy=0;strokeColor=#009900;" edge="1" parent="q-CX9jV84ZE6ob1jogBu-201">
          <mxGeometry width="50" height="50" relative="1" as="geometry">
            <mxPoint x="219.82999999999998" y="120" as="sourcePoint" />
            <mxPoint x="219.82999999999998" y="80" as="targetPoint" />
          </mxGeometry>
        </mxCell>
        <mxCell id="q-CX9jV84ZE6ob1jogBu-202" value="" style="group" parent="1" vertex="1" connectable="0">
          <mxGeometry x="120" y="360" width="620" height="160" as="geometry" />
        </mxCell>
        <mxCell id="q-CX9jV84ZE6ob1jogBu-135" value="" style="ellipse;whiteSpace=wrap;html=1;aspect=fixed;" parent="q-CX9jV84ZE6ob1jogBu-202" vertex="1">
          <mxGeometry x="90" y="70" width="20" height="20" as="geometry" />
        </mxCell>
        <mxCell id="q-CX9jV84ZE6ob1jogBu-136" style="edgeStyle=orthogonalEdgeStyle;rounded=0;orthogonalLoop=1;jettySize=auto;html=1;exitX=1;exitY=0.5;exitDx=0;exitDy=0;" parent="q-CX9jV84ZE6ob1jogBu-202" source="q-CX9jV84ZE6ob1jogBu-137" edge="1">
          <mxGeometry relative="1" as="geometry">
            <mxPoint x="620" y="80" as="targetPoint" />
          </mxGeometry>
        </mxCell>
        <mxCell id="q-CX9jV84ZE6ob1jogBu-137" value="System Dynamics" style="rounded=0;whiteSpace=wrap;html=1;" parent="q-CX9jV84ZE6ob1jogBu-202" vertex="1">
          <mxGeometry x="500" y="60" width="80" height="40" as="geometry" />
        </mxCell>
        <mxCell id="q-CX9jV84ZE6ob1jogBu-141" value="K" style="rounded=0;whiteSpace=wrap;html=1;fillColor=#fff2cc;strokeColor=#d6b656;" parent="q-CX9jV84ZE6ob1jogBu-202" vertex="1">
          <mxGeometry x="200" y="60" width="40" height="40" as="geometry" />
        </mxCell>
        <mxCell id="q-CX9jV84ZE6ob1jogBu-134" style="edgeStyle=orthogonalEdgeStyle;rounded=0;orthogonalLoop=1;jettySize=auto;html=1;exitX=1;exitY=0.5;exitDx=0;exitDy=0;entryX=0;entryY=0.5;entryDx=0;entryDy=0;" parent="q-CX9jV84ZE6ob1jogBu-202" source="q-CX9jV84ZE6ob1jogBu-135" target="q-CX9jV84ZE6ob1jogBu-141" edge="1">
          <mxGeometry relative="1" as="geometry">
            <mxPoint x="180" y="80" as="targetPoint" />
            <mxPoint x="170" y="80" as="sourcePoint" />
          </mxGeometry>
        </mxCell>
        <mxCell id="q-CX9jV84ZE6ob1jogBu-144" style="edgeStyle=orthogonalEdgeStyle;rounded=0;orthogonalLoop=1;jettySize=auto;html=1;exitX=1;exitY=0.5;exitDx=0;exitDy=0;entryX=0;entryY=0.5;entryDx=0;entryDy=0;" parent="q-CX9jV84ZE6ob1jogBu-202" source="q-CX9jV84ZE6ob1jogBu-145" target="q-CX9jV84ZE6ob1jogBu-137" edge="1">
          <mxGeometry relative="1" as="geometry" />
        </mxCell>
        <mxCell id="q-CX9jV84ZE6ob1jogBu-145" value="Inverse Input Transformation" style="rounded=0;whiteSpace=wrap;html=1;fillColor=#fff2cc;strokeColor=#d6b656;" parent="q-CX9jV84ZE6ob1jogBu-202" vertex="1">
          <mxGeometry x="360" y="60" width="100" height="40" as="geometry" />
        </mxCell>
        <mxCell id="q-CX9jV84ZE6ob1jogBu-164" style="edgeStyle=orthogonalEdgeStyle;rounded=0;orthogonalLoop=1;jettySize=auto;html=1;exitX=1;exitY=0.5;exitDx=0;exitDy=0;entryX=0;entryY=0.5;entryDx=0;entryDy=0;" parent="q-CX9jV84ZE6ob1jogBu-202" source="q-CX9jV84ZE6ob1jogBu-163" target="q-CX9jV84ZE6ob1jogBu-145" edge="1">
          <mxGeometry relative="1" as="geometry" />
        </mxCell>
        <mxCell id="q-CX9jV84ZE6ob1jogBu-163" value="" style="ellipse;whiteSpace=wrap;html=1;aspect=fixed;" parent="q-CX9jV84ZE6ob1jogBu-202" vertex="1">
          <mxGeometry x="270" y="70" width="20" height="20" as="geometry" />
        </mxCell>
        <mxCell id="q-CX9jV84ZE6ob1jogBu-140" style="edgeStyle=orthogonalEdgeStyle;rounded=0;orthogonalLoop=1;jettySize=auto;html=1;exitX=1;exitY=0.5;exitDx=0;exitDy=0;entryX=0;entryY=0.5;entryDx=0;entryDy=0;" parent="q-CX9jV84ZE6ob1jogBu-202" source="q-CX9jV84ZE6ob1jogBu-141" target="q-CX9jV84ZE6ob1jogBu-163" edge="1">
          <mxGeometry relative="1" as="geometry">
            <mxPoint x="240" y="80" as="targetPoint" />
          </mxGeometry>
        </mxCell>
        <mxCell id="q-CX9jV84ZE6ob1jogBu-165" value="" style="endArrow=classic;html=1;rounded=0;entryX=0;entryY=0.5;entryDx=0;entryDy=0;" parent="q-CX9jV84ZE6ob1jogBu-202" target="q-CX9jV84ZE6ob1jogBu-135" edge="1">
          <mxGeometry width="50" height="50" relative="1" as="geometry">
            <mxPoint y="80" as="sourcePoint" />
            <mxPoint x="210" y="-80" as="targetPoint" />
          </mxGeometry>
        </mxCell>
        <mxCell id="q-CX9jV84ZE6ob1jogBu-166" value="" style="endArrow=classic;html=1;rounded=0;strokeColor=#0000FF;entryX=0;entryY=0.5;entryDx=0;entryDy=0;" parent="q-CX9jV84ZE6ob1jogBu-202" target="q-CX9jV84ZE6ob1jogBu-162" edge="1">
          <mxGeometry width="50" height="50" relative="1" as="geometry">
            <mxPoint x="40" y="80" as="sourcePoint" />
            <mxPoint y="-10" as="targetPoint" />
            <Array as="points">
              <mxPoint x="40" y="80" />
              <mxPoint x="40" y="20" />
            </Array>
          </mxGeometry>
        </mxCell>
        <mxCell id="q-CX9jV84ZE6ob1jogBu-167" value="p2y" style="rounded=0;whiteSpace=wrap;html=1;" parent="q-CX9jV84ZE6ob1jogBu-202" vertex="1">
          <mxGeometry x="200" y="120" width="40" height="40" as="geometry" />
        </mxCell>
        <mxCell id="q-CX9jV84ZE6ob1jogBu-168" style="edgeStyle=orthogonalEdgeStyle;rounded=0;orthogonalLoop=1;jettySize=auto;html=1;exitX=0;exitY=0.5;exitDx=0;exitDy=0;entryX=0.5;entryY=1;entryDx=0;entryDy=0;strokeColor=#009900;" parent="q-CX9jV84ZE6ob1jogBu-202" source="q-CX9jV84ZE6ob1jogBu-167" target="q-CX9jV84ZE6ob1jogBu-135" edge="1">
          <mxGeometry relative="1" as="geometry" />
        </mxCell>
        <mxCell id="q-CX9jV84ZE6ob1jogBu-169" value="" style="endArrow=classic;html=1;rounded=0;entryX=1;entryY=0.5;entryDx=0;entryDy=0;strokeColor=#009900;" parent="q-CX9jV84ZE6ob1jogBu-202" target="q-CX9jV84ZE6ob1jogBu-167" edge="1">
          <mxGeometry width="50" height="50" relative="1" as="geometry">
            <mxPoint x="600" y="80" as="sourcePoint" />
            <mxPoint x="250" y="-30" as="targetPoint" />
            <Array as="points">
              <mxPoint x="600" y="140" />
            </Array>
          </mxGeometry>
        </mxCell>
        <mxCell id="q-CX9jV84ZE6ob1jogBu-170" value="" style="endArrow=classic;html=1;rounded=0;entryX=0.5;entryY=1;entryDx=0;entryDy=0;strokeColor=#009900;" parent="q-CX9jV84ZE6ob1jogBu-202" target="q-CX9jV84ZE6ob1jogBu-145" edge="1">
          <mxGeometry width="50" height="50" relative="1" as="geometry">
            <mxPoint x="410" y="140" as="sourcePoint" />
            <mxPoint x="250" y="-30" as="targetPoint" />
          </mxGeometry>
        </mxCell>
        <mxCell id="q-CX9jV84ZE6ob1jogBu-162" value="d/dt" style="rounded=0;whiteSpace=wrap;html=1;" parent="q-CX9jV84ZE6ob1jogBu-202" vertex="1">
          <mxGeometry x="80" width="40" height="40" as="geometry" />
        </mxCell>
        <mxCell id="q-CX9jV84ZE6ob1jogBu-132" style="edgeStyle=orthogonalEdgeStyle;rounded=0;orthogonalLoop=1;jettySize=auto;html=1;entryX=0.5;entryY=0;entryDx=0;entryDy=0;strokeColor=#0000FF;exitX=1;exitY=0.5;exitDx=0;exitDy=0;" parent="q-CX9jV84ZE6ob1jogBu-202" source="q-CX9jV84ZE6ob1jogBu-162" target="q-CX9jV84ZE6ob1jogBu-163" edge="1">
          <mxGeometry relative="1" as="geometry">
            <Array as="points">
              <mxPoint x="280" y="20" />
            </Array>
            <mxPoint x="150" y="60" as="targetPoint" />
            <mxPoint x="170" y="20" as="sourcePoint" />
          </mxGeometry>
        </mxCell>
        <mxCell id="q-CX9jV84ZE6ob1jogBu-172" value="" style="endArrow=none;dashed=1;html=1;dashPattern=1 3;strokeWidth=2;rounded=0;fillColor=#f8cecc;strokeColor=#FF0000;" parent="q-CX9jV84ZE6ob1jogBu-202" edge="1">
          <mxGeometry width="50" height="50" relative="1" as="geometry">
            <mxPoint x="170" y="110" as="sourcePoint" />
            <mxPoint x="170" y="110" as="targetPoint" />
            <Array as="points">
              <mxPoint x="170" y="50" />
              <mxPoint x="310" y="50" />
              <mxPoint x="310" y="110" />
            </Array>
          </mxGeometry>
        </mxCell>
        <mxCell id="q-CX9jV84ZE6ob1jogBu-173" value="PD" style="edgeLabel;html=1;align=center;verticalAlign=middle;resizable=0;points=[];fontColor=#FF0000;labelBorderColor=#FFFFFF;" parent="q-CX9jV84ZE6ob1jogBu-172" vertex="1" connectable="0">
          <mxGeometry x="-0.5196" y="2" relative="1" as="geometry">
            <mxPoint x="74" y="62" as="offset" />
          </mxGeometry>
        </mxCell>
        <mxCell id="q-CX9jV84ZE6ob1jogBu-175" style="edgeStyle=orthogonalEdgeStyle;rounded=0;orthogonalLoop=1;jettySize=auto;html=1;exitX=0.5;exitY=0;exitDx=0;exitDy=0;dashed=1;endArrow=openThin;endFill=0;fillColor=#e1d5e7;strokeColor=#9673a6;" parent="q-CX9jV84ZE6ob1jogBu-202" source="q-CX9jV84ZE6ob1jogBu-174" edge="1">
          <mxGeometry relative="1" as="geometry">
            <mxPoint x="15.02298850574715" y="90" as="targetPoint" />
          </mxGeometry>
        </mxCell>
        <mxCell id="q-CX9jV84ZE6ob1jogBu-176" style="edgeStyle=orthogonalEdgeStyle;rounded=0;orthogonalLoop=1;jettySize=auto;html=1;exitX=1;exitY=0.5;exitDx=0;exitDy=0;dashed=1;endArrow=openThin;endFill=0;fillColor=#e1d5e7;strokeColor=#9673a6;" parent="q-CX9jV84ZE6ob1jogBu-202" source="q-CX9jV84ZE6ob1jogBu-174" edge="1">
          <mxGeometry relative="1" as="geometry">
            <mxPoint x="90" y="124.94252873563221" as="targetPoint" />
          </mxGeometry>
        </mxCell>
        <mxCell id="q-CX9jV84ZE6ob1jogBu-174" value="B" style="rounded=1;whiteSpace=wrap;html=1;fillColor=#e1d5e7;strokeColor=#9673a6;" parent="q-CX9jV84ZE6ob1jogBu-202" vertex="1">
          <mxGeometry y="110" width="30" height="30" as="geometry" />
        </mxCell>
        <mxCell id="q-CX9jV84ZE6ob1jogBu-203" value="" style="group" parent="1" vertex="1" connectable="0">
          <mxGeometry x="120" y="560" width="620" height="160" as="geometry" />
        </mxCell>
        <mxCell id="q-CX9jV84ZE6ob1jogBu-179" value="" style="ellipse;whiteSpace=wrap;html=1;aspect=fixed;" parent="q-CX9jV84ZE6ob1jogBu-203" vertex="1">
          <mxGeometry x="90" y="70" width="20" height="20" as="geometry" />
        </mxCell>
        <mxCell id="q-CX9jV84ZE6ob1jogBu-180" style="edgeStyle=orthogonalEdgeStyle;rounded=0;orthogonalLoop=1;jettySize=auto;html=1;exitX=1;exitY=0.5;exitDx=0;exitDy=0;" parent="q-CX9jV84ZE6ob1jogBu-203" source="q-CX9jV84ZE6ob1jogBu-181" edge="1">
          <mxGeometry relative="1" as="geometry">
            <mxPoint x="620" y="80" as="targetPoint" />
          </mxGeometry>
        </mxCell>
        <mxCell id="q-CX9jV84ZE6ob1jogBu-181" value="System Dynamics" style="rounded=0;whiteSpace=wrap;html=1;" parent="q-CX9jV84ZE6ob1jogBu-203" vertex="1">
          <mxGeometry x="500" y="60" width="80" height="40" as="geometry" />
        </mxCell>
        <mxCell id="q-CX9jV84ZE6ob1jogBu-183" value="K" style="rounded=0;whiteSpace=wrap;html=1;fillColor=#fff2cc;strokeColor=#d6b656;" parent="q-CX9jV84ZE6ob1jogBu-203" vertex="1">
          <mxGeometry x="200" y="60" width="40" height="40" as="geometry" />
        </mxCell>
        <mxCell id="q-CX9jV84ZE6ob1jogBu-178" style="edgeStyle=orthogonalEdgeStyle;rounded=0;orthogonalLoop=1;jettySize=auto;html=1;exitX=1;exitY=0.5;exitDx=0;exitDy=0;entryX=0;entryY=0.5;entryDx=0;entryDy=0;" parent="q-CX9jV84ZE6ob1jogBu-203" source="q-CX9jV84ZE6ob1jogBu-179" target="q-CX9jV84ZE6ob1jogBu-183" edge="1">
          <mxGeometry relative="1" as="geometry">
            <mxPoint x="180" y="80" as="targetPoint" />
            <mxPoint x="170" y="80" as="sourcePoint" />
          </mxGeometry>
        </mxCell>
        <mxCell id="q-CX9jV84ZE6ob1jogBu-184" style="edgeStyle=orthogonalEdgeStyle;rounded=0;orthogonalLoop=1;jettySize=auto;html=1;exitX=1;exitY=0.5;exitDx=0;exitDy=0;entryX=0;entryY=0.5;entryDx=0;entryDy=0;" parent="q-CX9jV84ZE6ob1jogBu-203" source="q-CX9jV84ZE6ob1jogBu-185" target="q-CX9jV84ZE6ob1jogBu-181" edge="1">
          <mxGeometry relative="1" as="geometry" />
        </mxCell>
        <mxCell id="q-CX9jV84ZE6ob1jogBu-185" value="Inverse Input Transformation" style="rounded=0;whiteSpace=wrap;html=1;fillColor=#fff2cc;strokeColor=#d6b656;" parent="q-CX9jV84ZE6ob1jogBu-203" vertex="1">
          <mxGeometry x="360" y="60" width="100" height="40" as="geometry" />
        </mxCell>
        <mxCell id="q-CX9jV84ZE6ob1jogBu-186" style="edgeStyle=orthogonalEdgeStyle;rounded=0;orthogonalLoop=1;jettySize=auto;html=1;exitX=1;exitY=0.5;exitDx=0;exitDy=0;entryX=0;entryY=0.5;entryDx=0;entryDy=0;" parent="q-CX9jV84ZE6ob1jogBu-203" source="q-CX9jV84ZE6ob1jogBu-187" target="q-CX9jV84ZE6ob1jogBu-185" edge="1">
          <mxGeometry relative="1" as="geometry" />
        </mxCell>
        <mxCell id="q-CX9jV84ZE6ob1jogBu-187" value="" style="ellipse;whiteSpace=wrap;html=1;aspect=fixed;" parent="q-CX9jV84ZE6ob1jogBu-203" vertex="1">
          <mxGeometry x="270" y="70" width="20" height="20" as="geometry" />
        </mxCell>
        <mxCell id="q-CX9jV84ZE6ob1jogBu-182" style="edgeStyle=orthogonalEdgeStyle;rounded=0;orthogonalLoop=1;jettySize=auto;html=1;exitX=1;exitY=0.5;exitDx=0;exitDy=0;entryX=0;entryY=0.5;entryDx=0;entryDy=0;" parent="q-CX9jV84ZE6ob1jogBu-203" source="q-CX9jV84ZE6ob1jogBu-183" target="q-CX9jV84ZE6ob1jogBu-187" edge="1">
          <mxGeometry relative="1" as="geometry">
            <mxPoint x="240" y="80" as="targetPoint" />
          </mxGeometry>
        </mxCell>
        <mxCell id="q-CX9jV84ZE6ob1jogBu-188" value="" style="endArrow=classic;html=1;rounded=0;entryX=0;entryY=0.5;entryDx=0;entryDy=0;" parent="q-CX9jV84ZE6ob1jogBu-203" target="q-CX9jV84ZE6ob1jogBu-179" edge="1">
          <mxGeometry width="50" height="50" relative="1" as="geometry">
            <mxPoint y="80" as="sourcePoint" />
            <mxPoint x="210" y="-80" as="targetPoint" />
          </mxGeometry>
        </mxCell>
        <mxCell id="q-CX9jV84ZE6ob1jogBu-189" value="" style="endArrow=classic;html=1;rounded=0;strokeColor=#0000FF;entryX=0;entryY=0.5;entryDx=0;entryDy=0;" parent="q-CX9jV84ZE6ob1jogBu-203" target="q-CX9jV84ZE6ob1jogBu-194" edge="1">
          <mxGeometry width="50" height="50" relative="1" as="geometry">
            <mxPoint x="40" y="80" as="sourcePoint" />
            <mxPoint y="-10" as="targetPoint" />
            <Array as="points">
              <mxPoint x="40" y="80" />
              <mxPoint x="40" y="20" />
            </Array>
          </mxGeometry>
        </mxCell>
        <mxCell id="q-CX9jV84ZE6ob1jogBu-190" value="p2z" style="rounded=0;whiteSpace=wrap;html=1;" parent="q-CX9jV84ZE6ob1jogBu-203" vertex="1">
          <mxGeometry x="200" y="120" width="40" height="40" as="geometry" />
        </mxCell>
        <mxCell id="q-CX9jV84ZE6ob1jogBu-191" style="edgeStyle=orthogonalEdgeStyle;rounded=0;orthogonalLoop=1;jettySize=auto;html=1;exitX=0;exitY=0.5;exitDx=0;exitDy=0;entryX=0.5;entryY=1;entryDx=0;entryDy=0;strokeColor=#009900;" parent="q-CX9jV84ZE6ob1jogBu-203" source="q-CX9jV84ZE6ob1jogBu-190" target="q-CX9jV84ZE6ob1jogBu-179" edge="1">
          <mxGeometry relative="1" as="geometry" />
        </mxCell>
        <mxCell id="q-CX9jV84ZE6ob1jogBu-192" value="" style="endArrow=classic;html=1;rounded=0;entryX=1;entryY=0.5;entryDx=0;entryDy=0;strokeColor=#009900;" parent="q-CX9jV84ZE6ob1jogBu-203" target="q-CX9jV84ZE6ob1jogBu-190" edge="1">
          <mxGeometry width="50" height="50" relative="1" as="geometry">
            <mxPoint x="600" y="80" as="sourcePoint" />
            <mxPoint x="250" y="-30" as="targetPoint" />
            <Array as="points">
              <mxPoint x="600" y="140" />
            </Array>
          </mxGeometry>
        </mxCell>
        <mxCell id="q-CX9jV84ZE6ob1jogBu-193" value="" style="endArrow=classic;html=1;rounded=0;entryX=0.5;entryY=1;entryDx=0;entryDy=0;strokeColor=#009900;" parent="q-CX9jV84ZE6ob1jogBu-203" target="q-CX9jV84ZE6ob1jogBu-185" edge="1">
          <mxGeometry width="50" height="50" relative="1" as="geometry">
            <mxPoint x="410" y="140" as="sourcePoint" />
            <mxPoint x="250" y="-30" as="targetPoint" />
          </mxGeometry>
        </mxCell>
        <mxCell id="q-CX9jV84ZE6ob1jogBu-194" value="d/dt" style="rounded=0;whiteSpace=wrap;html=1;" parent="q-CX9jV84ZE6ob1jogBu-203" vertex="1">
          <mxGeometry x="80" width="40" height="40" as="geometry" />
        </mxCell>
        <mxCell id="q-CX9jV84ZE6ob1jogBu-177" style="edgeStyle=orthogonalEdgeStyle;rounded=0;orthogonalLoop=1;jettySize=auto;html=1;entryX=0.5;entryY=0;entryDx=0;entryDy=0;strokeColor=#0000FF;exitX=1;exitY=0.5;exitDx=0;exitDy=0;" parent="q-CX9jV84ZE6ob1jogBu-203" source="q-CX9jV84ZE6ob1jogBu-194" target="q-CX9jV84ZE6ob1jogBu-187" edge="1">
          <mxGeometry relative="1" as="geometry">
            <Array as="points">
              <mxPoint x="280" y="20" />
            </Array>
            <mxPoint x="150" y="60" as="targetPoint" />
            <mxPoint x="170" y="20" as="sourcePoint" />
          </mxGeometry>
        </mxCell>
        <mxCell id="q-CX9jV84ZE6ob1jogBu-195" value="" style="endArrow=none;dashed=1;html=1;dashPattern=1 3;strokeWidth=2;rounded=0;fillColor=#f8cecc;strokeColor=#FF0000;" parent="q-CX9jV84ZE6ob1jogBu-203" edge="1">
          <mxGeometry width="50" height="50" relative="1" as="geometry">
            <mxPoint x="170" y="110" as="sourcePoint" />
            <mxPoint x="170" y="110" as="targetPoint" />
            <Array as="points">
              <mxPoint x="170" y="50" />
              <mxPoint x="310" y="50" />
              <mxPoint x="310" y="110" />
            </Array>
          </mxGeometry>
        </mxCell>
        <mxCell id="q-CX9jV84ZE6ob1jogBu-196" value="PD" style="edgeLabel;html=1;align=center;verticalAlign=middle;resizable=0;points=[];fontColor=#FF0000;labelBorderColor=#FFFFFF;" parent="q-CX9jV84ZE6ob1jogBu-195" vertex="1" connectable="0">
          <mxGeometry x="-0.5196" y="2" relative="1" as="geometry">
            <mxPoint x="74" y="62" as="offset" />
          </mxGeometry>
        </mxCell>
        <mxCell id="q-CX9jV84ZE6ob1jogBu-197" style="edgeStyle=orthogonalEdgeStyle;rounded=0;orthogonalLoop=1;jettySize=auto;html=1;exitX=0.5;exitY=0;exitDx=0;exitDy=0;dashed=1;endArrow=openThin;endFill=0;fillColor=#e1d5e7;strokeColor=#9673a6;" parent="q-CX9jV84ZE6ob1jogBu-203" source="q-CX9jV84ZE6ob1jogBu-199" edge="1">
          <mxGeometry relative="1" as="geometry">
            <mxPoint x="15.02298850574715" y="90" as="targetPoint" />
          </mxGeometry>
        </mxCell>
        <mxCell id="q-CX9jV84ZE6ob1jogBu-198" style="edgeStyle=orthogonalEdgeStyle;rounded=0;orthogonalLoop=1;jettySize=auto;html=1;exitX=1;exitY=0.5;exitDx=0;exitDy=0;dashed=1;endArrow=openThin;endFill=0;fillColor=#e1d5e7;strokeColor=#9673a6;" parent="q-CX9jV84ZE6ob1jogBu-203" source="q-CX9jV84ZE6ob1jogBu-199" edge="1">
          <mxGeometry relative="1" as="geometry">
            <mxPoint x="90" y="124.94252873563221" as="targetPoint" />
          </mxGeometry>
        </mxCell>
        <mxCell id="q-CX9jV84ZE6ob1jogBu-199" value="Z" style="rounded=1;whiteSpace=wrap;html=1;fillColor=#e1d5e7;strokeColor=#9673a6;" parent="q-CX9jV84ZE6ob1jogBu-203" vertex="1">
          <mxGeometry y="110" width="30" height="30" as="geometry" />
        </mxCell>
        <mxCell id="q-CX9jV84ZE6ob1jogBu-232" value="Generate Random Initial Conditions" style="rounded=0;whiteSpace=wrap;html=1;" parent="1" vertex="1">
          <mxGeometry x="640" y="960" width="120" height="40" as="geometry" />
        </mxCell>
        <mxCell id="q-CX9jV84ZE6ob1jogBu-233" value="&lt;span style=&quot;caret-color: rgb(0, 0, 0); color: rgb(0, 0, 0); font-family: Helvetica; font-size: 12px; font-style: normal; font-variant-caps: normal; font-weight: 400; letter-spacing: normal; text-align: center; text-indent: 0px; text-transform: none; word-spacing: 0px; -webkit-text-stroke-width: 0px; text-decoration: none; float: none; display: inline !important;&quot;&gt;Number of Simulations (N)&lt;/span&gt;" style="shape=parallelogram;perimeter=parallelogramPerimeter;whiteSpace=wrap;html=1;fixedSize=1;" parent="1" vertex="1">
          <mxGeometry x="640" y="840" width="120" height="40" as="geometry" />
        </mxCell>
        <mxCell id="q-CX9jV84ZE6ob1jogBu-234" value="&lt;span style=&quot;caret-color: rgb(0, 0, 0); color: rgb(0, 0, 0); font-family: Helvetica; font-size: 12px; font-style: normal; font-variant-caps: normal; font-weight: 400; letter-spacing: normal; text-align: center; text-indent: 0px; text-transform: none; word-spacing: 0px; -webkit-text-stroke-width: 0px; text-decoration: none; float: none; display: inline !important;&quot;&gt;Control Strategy Selection&lt;/span&gt;" style="shape=parallelogram;perimeter=parallelogramPerimeter;whiteSpace=wrap;html=1;fixedSize=1;" parent="1" vertex="1">
          <mxGeometry x="640" y="800" width="120" height="40" as="geometry" />
        </mxCell>
        <mxCell id="q-CX9jV84ZE6ob1jogBu-239" style="edgeStyle=orthogonalEdgeStyle;rounded=0;orthogonalLoop=1;jettySize=auto;html=1;exitX=0.5;exitY=1;exitDx=0;exitDy=0;entryX=0.5;entryY=0;entryDx=0;entryDy=0;" parent="1" source="q-CX9jV84ZE6ob1jogBu-235" target="q-CX9jV84ZE6ob1jogBu-232" edge="1">
          <mxGeometry relative="1" as="geometry" />
        </mxCell>
        <mxCell id="q-CX9jV84ZE6ob1jogBu-235" value="&lt;span style=&quot;caret-color: rgb(0, 0, 0); color: rgb(0, 0, 0); font-family: Helvetica; font-size: 12px; font-style: normal; font-variant-caps: normal; font-weight: 400; letter-spacing: normal; text-align: center; text-indent: 0px; text-transform: none; word-spacing: 0px; -webkit-text-stroke-width: 0px; text-decoration: none; float: none; display: inline !important;&quot;&gt;Proximity Radius&lt;/span&gt;" style="shape=parallelogram;perimeter=parallelogramPerimeter;whiteSpace=wrap;html=1;fixedSize=1;" parent="1" vertex="1">
          <mxGeometry x="640" y="880" width="120" height="40" as="geometry" />
        </mxCell>
        <mxCell id="q-CX9jV84ZE6ob1jogBu-240" style="edgeStyle=orthogonalEdgeStyle;rounded=0;orthogonalLoop=1;jettySize=auto;html=1;exitX=0.5;exitY=1;exitDx=0;exitDy=0;entryX=0.5;entryY=0;entryDx=0;entryDy=0;" parent="1" source="q-CX9jV84ZE6ob1jogBu-236" target="q-CX9jV84ZE6ob1jogBu-238" edge="1">
          <mxGeometry relative="1" as="geometry" />
        </mxCell>
        <mxCell id="q-CX9jV84ZE6ob1jogBu-236" value="Run Simulation" style="rounded=0;whiteSpace=wrap;html=1;" parent="1" vertex="1">
          <mxGeometry x="640" y="1000" width="120" height="20" as="geometry" />
        </mxCell>
        <mxCell id="q-CX9jV84ZE6ob1jogBu-242" style="edgeStyle=orthogonalEdgeStyle;rounded=0;orthogonalLoop=1;jettySize=auto;html=1;exitX=0.5;exitY=1;exitDx=0;exitDy=0;entryX=0.5;entryY=0;entryDx=0;entryDy=0;" parent="1" source="q-CX9jV84ZE6ob1jogBu-238" target="q-CX9jV84ZE6ob1jogBu-241" edge="1">
          <mxGeometry relative="1" as="geometry" />
        </mxCell>
        <mxCell id="q-CX9jV84ZE6ob1jogBu-238" value="&lt;span style=&quot;caret-color: rgb(0, 0, 0); color: rgb(0, 0, 0); font-family: Helvetica; font-size: 12px; font-style: normal; font-variant-caps: normal; font-weight: 400; letter-spacing: normal; text-align: center; text-indent: 0px; text-transform: none; word-spacing: 0px; -webkit-text-stroke-width: 0px; text-decoration: none; float: none; display: inline !important;&quot;&gt;Log Data&lt;/span&gt;" style="shape=parallelogram;perimeter=parallelogramPerimeter;whiteSpace=wrap;html=1;fixedSize=1;" parent="1" vertex="1">
          <mxGeometry x="640" y="1040" width="120" height="20" as="geometry" />
        </mxCell>
        <mxCell id="q-CX9jV84ZE6ob1jogBu-241" value="Elaborate Data &amp;amp; Get &amp;nbsp;Test Result" style="rounded=0;whiteSpace=wrap;html=1;" parent="1" vertex="1">
          <mxGeometry x="640" y="1100" width="120" height="40" as="geometry" />
        </mxCell>
        <mxCell id="q-CX9jV84ZE6ob1jogBu-243" value="" style="endArrow=classic;html=1;rounded=0;" parent="1" edge="1">
          <mxGeometry width="50" height="50" relative="1" as="geometry">
            <mxPoint x="700" y="1080" as="sourcePoint" />
            <mxPoint x="700" y="940" as="targetPoint" />
            <Array as="points">
              <mxPoint x="800" y="1080" />
              <mxPoint x="800" y="940" />
            </Array>
          </mxGeometry>
        </mxCell>
        <mxCell id="q-CX9jV84ZE6ob1jogBu-244" value="N times" style="text;html=1;align=center;verticalAlign=middle;resizable=0;points=[];autosize=1;strokeColor=none;fillColor=none;" parent="1" vertex="1">
          <mxGeometry x="800" y="980" width="60" height="30" as="geometry" />
        </mxCell>
        <mxCell id="q-CX9jV84ZE6ob1jogBu-245" value="Enable" style="rounded=0;whiteSpace=wrap;html=1;" parent="1" vertex="1">
          <mxGeometry x="60" y="920" width="100" height="20" as="geometry" />
        </mxCell>
        <mxCell id="q-CX9jV84ZE6ob1jogBu-246" value="Initial Condition" style="rounded=0;whiteSpace=wrap;html=1;" parent="1" vertex="1">
          <mxGeometry x="60" y="940" width="100" height="20" as="geometry" />
        </mxCell>
        <mxCell id="q-CX9jV84ZE6ob1jogBu-252" style="edgeStyle=orthogonalEdgeStyle;rounded=0;orthogonalLoop=1;jettySize=auto;html=1;exitX=1;exitY=0.5;exitDx=0;exitDy=0;entryX=0;entryY=0.5;entryDx=0;entryDy=0;" parent="1" source="q-CX9jV84ZE6ob1jogBu-248" target="q-CX9jV84ZE6ob1jogBu-250" edge="1">
          <mxGeometry relative="1" as="geometry" />
        </mxCell>
        <mxCell id="q-CX9jV84ZE6ob1jogBu-248" value="Posture Regulation" style="rounded=0;whiteSpace=wrap;html=1;" parent="1" vertex="1">
          <mxGeometry x="60" y="960" width="100" height="40" as="geometry" />
        </mxCell>
        <mxCell id="q-CX9jV84ZE6ob1jogBu-249" value="Enable" style="rounded=0;whiteSpace=wrap;html=1;" parent="1" vertex="1">
          <mxGeometry x="260" y="950" width="100" height="20" as="geometry" />
        </mxCell>
        <mxCell id="q-CX9jV84ZE6ob1jogBu-250" value="Initial Condition" style="rounded=0;whiteSpace=wrap;html=1;" parent="1" vertex="1">
          <mxGeometry x="260" y="970" width="100" height="20" as="geometry" />
        </mxCell>
        <mxCell id="q-CX9jV84ZE6ob1jogBu-297" style="edgeStyle=orthogonalEdgeStyle;rounded=0;orthogonalLoop=1;jettySize=auto;html=1;exitX=1;exitY=0.5;exitDx=0;exitDy=0;entryX=0;entryY=0.75;entryDx=0;entryDy=0;" parent="1" source="q-CX9jV84ZE6ob1jogBu-251" target="q-CX9jV84ZE6ob1jogBu-293" edge="1">
          <mxGeometry relative="1" as="geometry">
            <mxPoint x="390" y="870" as="targetPoint" />
            <Array as="points">
              <mxPoint x="380" y="1010" />
              <mxPoint x="380" y="860" />
            </Array>
          </mxGeometry>
        </mxCell>
        <mxCell id="q-CX9jV84ZE6ob1jogBu-251" value="Trajectory Tracking" style="rounded=0;whiteSpace=wrap;html=1;" parent="1" vertex="1">
          <mxGeometry x="260" y="990" width="100" height="40" as="geometry" />
        </mxCell>
        <mxCell id="q-CX9jV84ZE6ob1jogBu-253" value="" style="endArrow=classic;html=1;rounded=0;entryX=0;entryY=0.5;entryDx=0;entryDy=0;" parent="1" target="q-CX9jV84ZE6ob1jogBu-251" edge="1">
          <mxGeometry width="50" height="50" relative="1" as="geometry">
            <mxPoint x="200" y="1010" as="sourcePoint" />
            <mxPoint x="230" y="950" as="targetPoint" />
          </mxGeometry>
        </mxCell>
        <mxCell id="q-CX9jV84ZE6ob1jogBu-256" value="&lt;font style=&quot;font-size: 8px;&quot;&gt;Trajectory&lt;/font&gt;" style="edgeLabel;html=1;align=center;verticalAlign=middle;resizable=0;points=[];labelBackgroundColor=none;" parent="q-CX9jV84ZE6ob1jogBu-253" vertex="1" connectable="0">
          <mxGeometry x="-0.1" y="1" relative="1" as="geometry">
            <mxPoint x="-17" y="-9" as="offset" />
          </mxGeometry>
        </mxCell>
        <mxCell id="q-CX9jV84ZE6ob1jogBu-260" style="edgeStyle=orthogonalEdgeStyle;rounded=0;orthogonalLoop=1;jettySize=auto;html=1;exitX=1;exitY=0.5;exitDx=0;exitDy=0;entryX=0.5;entryY=0;entryDx=0;entryDy=0;strokeColor=#0000FF;" parent="1" source="q-CX9jV84ZE6ob1jogBu-259" target="q-CX9jV84ZE6ob1jogBu-249" edge="1">
          <mxGeometry relative="1" as="geometry" />
        </mxCell>
        <mxCell id="q-CX9jV84ZE6ob1jogBu-261" value="" style="endArrow=classic;html=1;rounded=0;entryX=0;entryY=0.5;entryDx=0;entryDy=0;" parent="1" edge="1">
          <mxGeometry width="50" height="50" relative="1" as="geometry">
            <mxPoint y="980" as="sourcePoint" />
            <mxPoint x="60" y="980" as="targetPoint" />
          </mxGeometry>
        </mxCell>
        <mxCell id="q-CX9jV84ZE6ob1jogBu-262" value="&lt;font style=&quot;font-size: 8px;&quot;&gt;Consensus&lt;/font&gt;" style="edgeLabel;html=1;align=center;verticalAlign=middle;resizable=0;points=[];labelBackgroundColor=none;" parent="q-CX9jV84ZE6ob1jogBu-261" vertex="1" connectable="0">
          <mxGeometry x="-0.1" y="1" relative="1" as="geometry">
            <mxPoint x="-17" y="-9" as="offset" />
          </mxGeometry>
        </mxCell>
        <mxCell id="q-CX9jV84ZE6ob1jogBu-263" value="" style="endArrow=classic;html=1;rounded=0;entryX=0;entryY=0.5;entryDx=0;entryDy=0;" parent="1" edge="1">
          <mxGeometry width="50" height="50" relative="1" as="geometry">
            <mxPoint y="949.6" as="sourcePoint" />
            <mxPoint x="60" y="949.6" as="targetPoint" />
          </mxGeometry>
        </mxCell>
        <mxCell id="q-CX9jV84ZE6ob1jogBu-264" value="&lt;font style=&quot;font-size: 8px;&quot;&gt;From MATLAB&lt;/font&gt;" style="edgeLabel;html=1;align=center;verticalAlign=middle;resizable=0;points=[];labelBackgroundColor=none;" parent="q-CX9jV84ZE6ob1jogBu-263" vertex="1" connectable="0">
          <mxGeometry x="-0.1" y="1" relative="1" as="geometry">
            <mxPoint x="-17" y="-9" as="offset" />
          </mxGeometry>
        </mxCell>
        <mxCell id="q-CX9jV84ZE6ob1jogBu-272" style="edgeStyle=orthogonalEdgeStyle;rounded=0;orthogonalLoop=1;jettySize=auto;html=1;exitX=0.5;exitY=1;exitDx=0;exitDy=0;entryX=0.5;entryY=0;entryDx=0;entryDy=0;strokeColor=#0000FF;" parent="1" source="q-CX9jV84ZE6ob1jogBu-265" target="q-CX9jV84ZE6ob1jogBu-245" edge="1">
          <mxGeometry relative="1" as="geometry" />
        </mxCell>
        <mxCell id="q-CX9jV84ZE6ob1jogBu-265" value="" style="rounded=0;whiteSpace=wrap;html=1;" parent="1" vertex="1">
          <mxGeometry x="60" y="800" width="100" height="60" as="geometry" />
        </mxCell>
        <mxCell id="q-CX9jV84ZE6ob1jogBu-266" value="" style="endArrow=classic;html=1;rounded=0;entryX=0;entryY=0.5;entryDx=0;entryDy=0;" parent="1" edge="1">
          <mxGeometry width="50" height="50" relative="1" as="geometry">
            <mxPoint y="829.8000000000001" as="sourcePoint" />
            <mxPoint x="60" y="829.8000000000001" as="targetPoint" />
          </mxGeometry>
        </mxCell>
        <mxCell id="q-CX9jV84ZE6ob1jogBu-267" value="&lt;font style=&quot;font-size: 8px;&quot;&gt;Consensus&lt;/font&gt;" style="edgeLabel;html=1;align=center;verticalAlign=middle;resizable=0;points=[];labelBackgroundColor=none;" parent="q-CX9jV84ZE6ob1jogBu-266" vertex="1" connectable="0">
          <mxGeometry x="-0.1" y="1" relative="1" as="geometry">
            <mxPoint x="-17" y="-9" as="offset" />
          </mxGeometry>
        </mxCell>
        <mxCell id="q-CX9jV84ZE6ob1jogBu-268" value="" style="endArrow=classic;html=1;rounded=0;entryX=0;entryY=0.5;entryDx=0;entryDy=0;" parent="1" edge="1">
          <mxGeometry width="50" height="50" relative="1" as="geometry">
            <mxPoint y="850.0000000000001" as="sourcePoint" />
            <mxPoint x="60" y="850.0000000000001" as="targetPoint" />
          </mxGeometry>
        </mxCell>
        <mxCell id="q-CX9jV84ZE6ob1jogBu-269" value="&lt;font style=&quot;font-size: 8px;&quot;&gt;Real Position&lt;/font&gt;" style="edgeLabel;html=1;align=center;verticalAlign=middle;resizable=0;points=[];labelBackgroundColor=none;" parent="q-CX9jV84ZE6ob1jogBu-268" vertex="1" connectable="0">
          <mxGeometry x="-0.1" y="1" relative="1" as="geometry">
            <mxPoint x="-17" y="-9" as="offset" />
          </mxGeometry>
        </mxCell>
        <mxCell id="q-CX9jV84ZE6ob1jogBu-270" value="" style="endArrow=classic;html=1;rounded=0;entryX=0;entryY=0.5;entryDx=0;entryDy=0;" parent="1" edge="1">
          <mxGeometry width="50" height="50" relative="1" as="geometry">
            <mxPoint y="810.0000000000001" as="sourcePoint" />
            <mxPoint x="60" y="810.0000000000001" as="targetPoint" />
          </mxGeometry>
        </mxCell>
        <mxCell id="q-CX9jV84ZE6ob1jogBu-271" value="&lt;font style=&quot;font-size: 8px;&quot;&gt;Proximity Radius&lt;/font&gt;" style="edgeLabel;html=1;align=center;verticalAlign=middle;resizable=0;points=[];labelBackgroundColor=none;" parent="q-CX9jV84ZE6ob1jogBu-270" vertex="1" connectable="0">
          <mxGeometry x="-0.1" y="1" relative="1" as="geometry">
            <mxPoint x="-17" y="-9" as="offset" />
          </mxGeometry>
        </mxCell>
        <mxCell id="q-CX9jV84ZE6ob1jogBu-273" value="" style="endArrow=none;html=1;rounded=0;entryX=0;entryY=0.5;entryDx=0;entryDy=0;endFill=0;strokeColor=#0000FF;" parent="1" target="q-CX9jV84ZE6ob1jogBu-258" edge="1">
          <mxGeometry width="50" height="50" relative="1" as="geometry">
            <mxPoint x="110" y="890" as="sourcePoint" />
            <mxPoint x="220" y="870" as="targetPoint" />
            <Array as="points">
              <mxPoint x="310" y="890" />
            </Array>
          </mxGeometry>
        </mxCell>
        <mxCell id="q-CX9jV84ZE6ob1jogBu-296" value="" style="endArrow=none;html=1;rounded=0;entryX=0;entryY=0.5;entryDx=0;entryDy=0;strokeColor=#0000FF;" parent="1" target="q-CX9jV84ZE6ob1jogBu-293" edge="1">
          <mxGeometry width="50" height="50" relative="1" as="geometry">
            <mxPoint x="310" y="890" as="sourcePoint" />
            <mxPoint x="530" y="840" as="targetPoint" />
            <Array as="points">
              <mxPoint x="310" y="840" />
            </Array>
          </mxGeometry>
        </mxCell>
        <mxCell id="q-CX9jV84ZE6ob1jogBu-293" value="T&lt;br&gt;&lt;br&gt;&lt;br&gt;&lt;br&gt;F" style="rounded=0;whiteSpace=wrap;html=1;" parent="1" vertex="1">
          <mxGeometry x="400" y="800" width="40" height="80" as="geometry" />
        </mxCell>
        <mxCell id="q-CX9jV84ZE6ob1jogBu-258" value="" style="triangle;whiteSpace=wrap;html=1;rotation=90;" parent="1" vertex="1">
          <mxGeometry x="300" y="908" width="20" height="20" as="geometry" />
        </mxCell>
        <mxCell id="q-CX9jV84ZE6ob1jogBu-259" value="" style="ellipse;whiteSpace=wrap;html=1;aspect=fixed;rotation=90;" parent="1" vertex="1">
          <mxGeometry x="307.5" y="928" width="5" height="5" as="geometry" />
        </mxCell>
        <mxCell id="q-CX9jV84ZE6ob1jogBu-299" value="" style="endArrow=classic;html=1;rounded=0;entryX=0;entryY=0.25;entryDx=0;entryDy=0;" parent="1" target="q-CX9jV84ZE6ob1jogBu-293" edge="1">
          <mxGeometry width="50" height="50" relative="1" as="geometry">
            <mxPoint x="210" y="980" as="sourcePoint" />
            <mxPoint x="390" y="820" as="targetPoint" />
            <Array as="points">
              <mxPoint x="210" y="820" />
            </Array>
          </mxGeometry>
        </mxCell>
        <mxCell id="q-CX9jV84ZE6ob1jogBu-300" value="" style="endArrow=classic;html=1;rounded=0;entryX=0;entryY=0.5;entryDx=0;entryDy=0;" parent="1" edge="1">
          <mxGeometry width="50" height="50" relative="1" as="geometry">
            <mxPoint x="440" y="840.0000000000001" as="sourcePoint" />
            <mxPoint x="500" y="840.0000000000001" as="targetPoint" />
          </mxGeometry>
        </mxCell>
        <mxCell id="q-CX9jV84ZE6ob1jogBu-301" value="&lt;font style=&quot;font-size: 8px;&quot;&gt;Real Position&lt;/font&gt;" style="edgeLabel;html=1;align=center;verticalAlign=middle;resizable=0;points=[];labelBackgroundColor=none;" parent="q-CX9jV84ZE6ob1jogBu-300" vertex="1" connectable="0">
          <mxGeometry x="-0.1" y="1" relative="1" as="geometry">
            <mxPoint x="23" y="-9" as="offset" />
          </mxGeometry>
        </mxCell>
        <mxCell id="lx8FWliPLgwpXFhj1KzW-2" value="ERROR CHECK BLOCK" style="rounded=0;whiteSpace=wrap;html=1;" parent="1" vertex="1">
          <mxGeometry x="1000" y="200" width="120" height="80" as="geometry" />
        </mxCell>
        <mxCell id="lx8FWliPLgwpXFhj1KzW-3" value="" style="endArrow=classic;html=1;rounded=0;entryX=0;entryY=0.5;entryDx=0;entryDy=0;" parent="1" edge="1">
          <mxGeometry width="50" height="50" relative="1" as="geometry">
            <mxPoint x="960" y="220.2" as="sourcePoint" />
            <mxPoint x="1000" y="220.00000000000006" as="targetPoint" />
          </mxGeometry>
        </mxCell>
        <mxCell id="lx8FWliPLgwpXFhj1KzW-4" value="&lt;font style=&quot;font-size: 12px;&quot;&gt;Desired Trajectory&lt;/font&gt;" style="edgeLabel;html=1;align=center;verticalAlign=middle;resizable=0;points=[];labelBackgroundColor=none;" parent="lx8FWliPLgwpXFhj1KzW-3" vertex="1" connectable="0">
          <mxGeometry x="-0.1" y="1" relative="1" as="geometry">
            <mxPoint x="-78" y="1" as="offset" />
          </mxGeometry>
        </mxCell>
        <mxCell id="lx8FWliPLgwpXFhj1KzW-9" value="" style="endArrow=classic;html=1;rounded=0;entryX=0;entryY=0.5;entryDx=0;entryDy=0;" parent="1" edge="1">
          <mxGeometry width="50" height="50" relative="1" as="geometry">
            <mxPoint x="960" y="259.96" as="sourcePoint" />
            <mxPoint x="1000" y="259.76000000000005" as="targetPoint" />
          </mxGeometry>
        </mxCell>
        <mxCell id="lx8FWliPLgwpXFhj1KzW-10" value="&lt;font style=&quot;font-size: 12px;&quot;&gt;Real Trajectory&lt;/font&gt;" style="edgeLabel;html=1;align=center;verticalAlign=middle;resizable=0;points=[];labelBackgroundColor=none;" parent="lx8FWliPLgwpXFhj1KzW-9" vertex="1" connectable="0">
          <mxGeometry x="-0.1" y="1" relative="1" as="geometry">
            <mxPoint x="-78" y="1" as="offset" />
          </mxGeometry>
        </mxCell>
        <mxCell id="lx8FWliPLgwpXFhj1KzW-11" value="" style="endArrow=classic;html=1;rounded=0;entryX=0;entryY=0.5;entryDx=0;entryDy=0;" parent="1" edge="1">
          <mxGeometry width="50" height="50" relative="1" as="geometry">
            <mxPoint x="1120" y="259.84" as="sourcePoint" />
            <mxPoint x="1160" y="259.64000000000004" as="targetPoint" />
          </mxGeometry>
        </mxCell>
        <mxCell id="lx8FWliPLgwpXFhj1KzW-12" value="&lt;font style=&quot;font-size: 12px;&quot;&gt;Convergence Flag&lt;/font&gt;" style="edgeLabel;html=1;align=center;verticalAlign=middle;resizable=0;points=[];labelBackgroundColor=none;" parent="lx8FWliPLgwpXFhj1KzW-11" vertex="1" connectable="0">
          <mxGeometry x="-0.1" y="1" relative="1" as="geometry">
            <mxPoint x="82" y="1" as="offset" />
          </mxGeometry>
        </mxCell>
        <mxCell id="lx8FWliPLgwpXFhj1KzW-13" value="" style="endArrow=classic;html=1;rounded=0;entryX=0;entryY=0.5;entryDx=0;entryDy=0;" parent="1" edge="1">
          <mxGeometry width="50" height="50" relative="1" as="geometry">
            <mxPoint x="1120" y="220.07999999999998" as="sourcePoint" />
            <mxPoint x="1160" y="219.88000000000005" as="targetPoint" />
          </mxGeometry>
        </mxCell>
        <mxCell id="lx8FWliPLgwpXFhj1KzW-14" value="&lt;font style=&quot;font-size: 12px;&quot;&gt;Distance Norm&lt;/font&gt;" style="edgeLabel;html=1;align=center;verticalAlign=middle;resizable=0;points=[];labelBackgroundColor=none;" parent="lx8FWliPLgwpXFhj1KzW-13" vertex="1" connectable="0">
          <mxGeometry x="-0.1" y="1" relative="1" as="geometry">
            <mxPoint x="82" y="1" as="offset" />
          </mxGeometry>
        </mxCell>
        <mxCell id="PEVOTj-VkGjCecRarAXN-1" value="" style="endArrow=classic;html=1;rounded=0;entryX=0.5;entryY=1;entryDx=0;entryDy=0;strokeColor=#009900;" edge="1" parent="1" target="q-CX9jV84ZE6ob1jogBu-46">
          <mxGeometry width="50" height="50" relative="1" as="geometry">
            <mxPoint x="340" y="160" as="sourcePoint" />
            <mxPoint x="450" y="120" as="targetPoint" />
          </mxGeometry>
        </mxCell>
      </root>
    </mxGraphModel>
  </diagram>
</mxfile>
